<?xml version="1.0" encoding="UTF-8"?> <!-- Generator: Adobe Illustrator 24.1.2, SVG Export Plug-In . SVG Version: 6.00 Build 0) --> <svg xmlns="http://www.w3.org/2000/svg" xmlns:xlink="http://www.w3.org/1999/xlink" version="1.0" id="Layer_1" x="0px" y="0px" viewBox="0 0 171.7 116.7" style="enable-background:new 0 0 171.7 116.7;" xml:space="preserve"> <style type="text/css"> .st0{fill:url(#SVGID_1_);} .st1{fill:url(#SVGID_2_);} .st2{fill:url(#SVGID_3_);} .st3{fill:url(#SVGID_4_);} .st4{fill:url(#SVGID_5_);} .st5{fill:url(#SVGID_6_);} </style> <g> <linearGradient id="SVGID_1_" gradientUnits="userSpaceOnUse" x1="24.8445" y1="30.3746" x2="125.22" y2="67.1376"> <stop offset="0" style="stop-color:#DD3C6F"></stop> <stop offset="0.9581" style="stop-color:#FAA63C"></stop> </linearGradient> <path class="st0" d="M54,42.3h-2.8v-2.8H54c3.4,0,5.6-0.8,6.6-2.5c0.5-0.8,0.7-1.6,0.7-2.5c0-1.7-0.6-3-1.9-3.9 c-1.1-0.9-2.6-1.3-4.3-1.3c-1.6,0-3,0.4-4.2,1.3c-1.2,0.8-2.1,2-2.6,3.5L45,33.1c0.8-2.2,2.2-3.8,4.1-5c1.8-1.1,3.9-1.7,6.3-1.7 c2.6,0,4.8,0.6,6.6,1.9c2,1.4,3,3.4,3,5.9c0,1.6-0.5,3-1.6,4.2c-1.1,1.2-2.4,1.9-4,2.2v0.1c2,0.3,3.6,1,4.8,2.3 c1.3,1.3,2,2.9,2,4.9c0,2.8-1.2,5-3.6,6.6c-2,1.4-4.5,2-7.5,2c-2.6,0-4.8-0.6-6.8-1.7c-2.1-1.2-3.5-3-4.3-5.3l3.4-1.1 c1,3.5,3.5,5.3,7.6,5.3c2.1,0,3.8-0.4,5.1-1.2c1.5-1,2.3-2.5,2.3-4.5c0-2-1-3.5-2.9-4.5C58,42.7,56.2,42.3,54,42.3z"></path> <linearGradient id="SVGID_2_" gradientUnits="userSpaceOnUse" x1="27.9463" y1="21.9056" x2="128.3218" y2="58.6687"> <stop offset="0" style="stop-color:#DD3C6F"></stop> <stop offset="0.9581" style="stop-color:#FAA63C"></stop> </linearGradient> <path class="st1" d="M90.9,32.9l-3.3,0.9c-1.1-2.9-3.1-4.4-6.1-4.4c-5.7,0-8.5,4.5-8.5,13.4h0.1c0.7-1.8,1.8-3.2,3.4-4.3 c1.6-1.1,3.4-1.6,5.3-1.6c2.7,0,5,0.9,6.8,2.7c1.8,1.8,2.7,4.1,2.7,6.8c0,2.9-1,5.2-3,7.1c-2,1.9-4.4,2.8-7.3,2.8 c-3.8,0-6.7-1.5-8.7-4.5c-1.8-2.6-2.6-5.8-2.6-9.8c0-4,0.8-7.5,2.4-10.3c2-3.6,5.2-5.4,9.5-5.4C86.3,26.4,89.4,28.6,90.9,32.9z M81,53.5c2,0,3.7-0.6,5-1.9c1.3-1.3,2-2.9,2-4.9c0-1.9-0.6-3.5-1.9-4.8c-1.3-1.3-2.9-2-4.7-2c-2,0-3.8,0.7-5.2,2.1 c-1.5,1.4-2.2,3.1-2.2,5.1c0,1.8,0.7,3.4,2.1,4.6C77.4,52.9,79.1,53.5,81,53.5z"></path> <linearGradient id="SVGID_3_" gradientUnits="userSpaceOnUse" x1="30.869" y1="13.9256" x2="131.2445" y2="50.6887"> <stop offset="0" style="stop-color:#DD3C6F"></stop> <stop offset="0.9581" style="stop-color:#FAA63C"></stop> </linearGradient> <path class="st2" d="M106.2,56.5c-3.7,0-6.6-1.7-8.6-5c-1.7-2.8-2.6-6.1-2.6-10c0-3.9,0.8-7.3,2.4-10c2-3.3,4.8-5,8.4-5 c3.8,0,6.7,1.7,8.8,5.1c1.7,2.8,2.5,6.2,2.5,10.1c0,3.8-0.9,7.1-2.6,9.9C112.6,54.8,109.8,56.5,106.2,56.5z M106.2,53.7 c2.6,0,4.6-1.4,5.8-4.1c0.9-2,1.4-4.6,1.4-7.5c0-3.3-0.5-6.1-1.4-8.3c-1.3-3.1-3.4-4.6-6.2-4.6c-2.7,0-4.6,1.4-5.8,4.3 c-0.9,2.1-1.3,4.7-1.3,7.7c0,3.2,0.5,5.9,1.4,8C101.3,52.2,103.4,53.7,106.2,53.7z"></path> <linearGradient id="SVGID_4_" gradientUnits="userSpaceOnUse" x1="35.8682" y1="0.2762" x2="136.2437" y2="37.0392"> <stop offset="0" style="stop-color:#DD3C6F"></stop> <stop offset="0.9581" style="stop-color:#FAA63C"></stop> </linearGradient> <path class="st3" d="M126.3,42.1c-2.1,0-3.8-1-5-2.9c-1-1.6-1.5-3.6-1.5-5.8c0-2.3,0.5-4.2,1.4-5.9c1.1-2,2.8-2.9,4.9-2.9 c2.2,0,3.9,1,5.1,3c1,1.6,1.5,3.6,1.5,5.9c0,2.2-0.5,4.1-1.5,5.8C130,41.2,128.4,42.1,126.3,42.1z M126.3,40.5 c1.5,0,2.7-0.8,3.4-2.4c0.5-1.2,0.8-2.7,0.8-4.4c0-1.9-0.3-3.5-0.8-4.8c-0.7-1.8-2-2.7-3.6-2.7c-1.5,0-2.7,0.8-3.4,2.5 c-0.5,1.2-0.8,2.7-0.8,4.5c0,1.9,0.3,3.5,0.8,4.7C123.5,39.7,124.7,40.5,126.3,40.5z"></path> </g> <linearGradient id="SVGID_5_" gradientUnits="userSpaceOnUse" x1="13.3876" y1="51.6891" x2="169.1142" y2="68.4184"> <stop offset="0" style="stop-color:#DD3C6F"></stop> <stop offset="0.9581" style="stop-color:#FAA63C"></stop> </linearGradient> <path class="st4" d="M134.1,41.7c4.1,1.2,8.2,2.8,11.8,5.2c1.8,1.2,3.6,2.6,4.9,4.5c1.4,1.8,2.2,4.3,1.8,6.8 c-0.4,2.5-1.7,4.6-3.2,6.3c-1.6,1.7-3.4,3.1-5.2,4.3c-1.9,1.2-3.8,2.2-5.8,3.1c-2,0.9-4,1.7-6.1,2.4c-4.1,1.4-8.3,2.6-12.6,3.5 c-4.2,0.9-8.5,1.6-12.8,2.1c-8.6,1-17.3,1.4-25.9,1.2c-8.6-0.3-17.3-1-25.8-2.6c-4.3-0.8-8.5-1.8-12.7-3.1c-4.2-1.3-8.3-2.8-12.2-5 c-2-1-3.9-2.3-5.7-3.7c-1.8-1.4-3.5-3.2-4.6-5.4c-0.6-1.1-0.9-2.3-1.1-3.6c0-0.6-0.1-1.3,0-1.9c0-0.3,0.1-0.6,0.1-0.9l0.3-0.9 c0.8-2.4,2.3-4.3,4-5.8c3.5-2.9,7.5-4.8,11.5-6.3c4.1-1.5,8.2-2.5,12.5-3.3l-3,1c-1,0.4-2,0.7-3,1.1c-2,0.8-4,1.5-5.9,2.5 c-3.8,1.8-7.5,3.9-10.4,6.8c-1.4,1.4-2.6,3-3,4.8l-0.2,0.6c0,0.2,0,0.4,0,0.6c-0.1,0.4,0,0.9,0.1,1.3c0.2,0.8,0.4,1.7,0.9,2.4 c0.9,1.6,2.3,2.9,3.9,4.1c1.6,1.2,3.4,2.2,5.2,3.1c3.7,1.8,7.7,3.1,11.7,4.2c4,1.1,8.1,2,12.3,2.6c8.3,1.4,16.7,2.1,25.1,2.3 c8.4,0.3,16.9,0,25.3-0.9c8.4-0.8,16.7-2.3,24.7-4.6c4-1.2,7.9-2.7,11.5-4.7c1.8-1,3.5-2.1,4.9-3.5c1.4-1.3,2.5-3,2.9-4.7 c0.4-1.8,0-3.7-1-5.3c-1-1.7-2.5-3.2-4.1-4.5c-1.6-1.3-3.4-2.4-5.3-3.5C138,43.5,136.1,42.6,134.1,41.7z"></path> <linearGradient id="SVGID_6_" gradientUnits="userSpaceOnUse" x1="11.2221" y1="71.8469" x2="166.9487" y2="88.5762"> <stop offset="0" style="stop-color:#DD3C6F"></stop> <stop offset="0.9581" style="stop-color:#FAA63C"></stop> </linearGradient> <polygon class="st5" points="82.1,67 94.6,79.5 82.1,92 "></polygon> </svg> 