<?xml version="1.0" standalone="no"?>
<!DOCTYPE svg PUBLIC "-//W3C//DTD SVG 20010904//EN"
 "http://www.w3.org/TR/2001/REC-SVG-20010904/DTD/svg10.dtd">
<svg version="1.0" xmlns="http://www.w3.org/2000/svg"
 width="201.000000pt" height="201.000000pt" viewBox="0 0 201.000000 201.000000"
 preserveAspectRatio="xMidYMid meet">
<metadata>
Created by potrace 1.14, written by Peter Selinger 2001-2017
</metadata>
<g transform="translate(0.000000,201.000000) scale(0.100000,-0.100000)"
fill="#000000" stroke="none">
<path d="M886 1419 c-3 -8 -17 -48 -31 -89 -15 -41 -28 -82 -30 -90 -2 -8 -28
-85 -59 -170 -30 -84 -53 -157 -50 -161 2 -4 12 -6 21 -5 13 2 26 30 48 98 26
83 33 94 52 93 12 -1 20 2 17 6 -3 5 8 11 23 15 15 3 34 7 41 10 6 2 12 -2 12
-9 0 -9 2 -9 8 0 4 7 12 9 18 5 16 -10 37 -80 28 -93 -4 -7 -3 -9 4 -5 6 4 17
-18 29 -56 15 -50 23 -63 38 -63 12 1 19 7 17 15 -6 32 -165 496 -173 504 -5
6 -10 3 -13 -5z m39 -177 c9 -31 19 -62 22 -68 2 -7 -12 -14 -34 -17 -21 -4
-49 -16 -62 -28 -12 -11 -24 -19 -25 -18 -8 10 60 196 70 192 6 -2 19 -30 29
-61z"/>
<path d="M309 1306 c-6 -5 -5 -387 1 -396 4 -6 13 -8 22 -5 11 4 15 22 17 62
1 32 4 59 6 61 9 9 75 10 81 1 3 -5 12 -5 22 0 9 5 22 9 27 10 6 1 10 9 10 19
0 14 -10 17 -68 18 -37 1 -70 4 -73 7 -6 6 -8 56 -5 143 l1 40 98 0 c90 -1 97
0 100 19 3 20 -2 21 -118 22 -66 0 -121 0 -121 -1z"/>
<path d="M614 1297 c-2 -7 -3 -98 -2 -201 3 -171 5 -189 21 -192 19 -3 18 -16
18 186 1 217 0 220 -16 220 -9 0 -18 -6 -21 -13z"/>
<path d="M1002 1301 c-20 -12 -4 -40 20 -33 16 4 19 2 13 -8 -6 -10 -4 -11 6
-4 8 5 31 9 52 10 l37 1 0 -185 c0 -164 2 -183 16 -178 9 3 19 6 22 6 4 0 6
76 6 170 -1 122 1 170 10 170 6 0 4 5 -4 10 -10 6 0 8 35 7 28 -2 56 -7 64
-11 10 -6 12 -5 7 2 -4 7 -1 12 8 12 9 0 16 8 16 18 0 17 -11 19 -148 20 -82
0 -154 -3 -160 -7z"/>
<path d="M1436 1296 c-114 -42 -173 -204 -105 -289 10 -14 19 -29 19 -34 0 -5
14 -17 30 -26 17 -10 30 -21 30 -25 0 -6 21 -10 73 -12 16 -1 17 -4 5 -18 -10
-13 -8 -13 9 2 13 11 31 16 42 13 11 -3 22 0 23 5 2 5 15 11 30 11 14 1 26 5
25 8 -1 3 10 16 24 30 86 80 79 233 -13 302 -58 42 -131 55 -192 33z m80 -38
c-4 6 -2 12 3 12 6 0 11 -5 11 -11 0 -5 4 -8 9 -5 5 3 23 -1 40 -10 72 -36
102 -139 61 -212 -80 -142 -295 -86 -292 76 1 47 31 109 51 104 7 -1 10 2 6 7
-12 21 82 54 104 37 11 -8 13 -8 7 2z"/>
<path d="M842 754 c-44 -31 -15 -125 35 -116 31 6 50 29 35 44 -8 8 -13 7 -18
-5 -3 -9 -12 -17 -20 -17 -29 0 -40 64 -13 81 15 9 42 -9 33 -22 -3 -5 2 -6
10 -3 21 8 20 17 -2 37 -23 21 -32 21 -60 1z"/>
<path d="M948 755 c-6 -67 -3 -115 9 -115 9 0 13 18 13 65 0 37 -4 65 -10 65
-5 0 -11 -7 -12 -15z"/>
<path d="M995 761 c-10 -9 -4 -21 10 -21 11 0 15 -12 15 -51 0 -59 24 -66 26
-7 1 47 11 71 25 62 7 -4 10 -1 7 7 -4 13 -72 21 -83 10z"/>
<path d="M1095 760 c-4 -7 1 -24 12 -38 11 -15 19 -39 19 -54 -1 -17 4 -28 11
-28 7 0 13 9 13 20 0 12 9 38 20 60 24 47 24 51 5 44 -8 -3 -17 -15 -21 -27
-6 -20 -7 -20 -29 7 -16 20 -25 24 -30 16z"/>
<path d="M1290 710 c-28 -17 2 -24 93 -21 51 1 103 4 117 5 14 2 33 -1 44 -6
12 -7 16 -7 12 0 -3 6 -1 12 6 14 7 3 -45 5 -115 6 -71 1 -131 3 -135 6 -5 3
-14 1 -22 -4z"/>
<path d="M441 699 c7 -4 20 -6 30 -4 10 2 21 -1 25 -7 4 -7 9 -6 14 2 5 8 13
9 21 4 16 -10 49 -13 49 -5 0 3 22 4 50 3 32 -3 48 -8 43 -15 -4 -6 -1 -7 8
-1 8 5 22 9 31 9 10 0 17 5 15 10 -1 6 -60 10 -150 11 -81 0 -142 -3 -136 -7z"/>
<path d="M1588 693 c7 -3 16 -2 19 1 4 3 -2 6 -13 5 -11 0 -14 -3 -6 -6z"/>
</g>
</svg>
